<?xml version="1.0" encoding="UTF-8"?>
<svg id="Capa_2" data-name="Capa 2" xmlns="http://www.w3.org/2000/svg" viewBox="0 0 863.16 863.16">
  <defs>
    <style>
      .cls-1 {
        fill: #fff;
      }
    </style>
  </defs>
  <g id="Capa_1-2" data-name="Capa 1">
    <circle cx="431.58" cy="431.58" r="431.58"/>
    <circle class="cls-1" cx="486.87" cy="362.71" r="256.58"/>
    <path d="M325.44,258.04c0-12.57,10.2-22.77,22.77-22.77h277.33c12.58,0,22.77,10.2,22.77,22.77v73.41c0,8.84-3.4,15.29-9.86,19.03-3.74,1.7-3.74,5.78,0,7.48,6.46,3.74,9.86,10.2,9.86,19.03v73.41c0,12.58-10.2,22.77-22.77,22.77h-277.33c-12.57,0-22.77-10.2-22.77-22.77v-73.41c0-8.84,3.4-15.29,9.86-19.03,3.74-1.7,3.74-5.78,0-7.48-6.46-3.74-9.86-10.2-9.86-19.03v-73.41ZM480.75,324.65c0,7.48,12.24,7.48,12.24,0v-36.02c0-7.48-12.24-7.48-12.24,0v36.02ZM480.75,419.81c0,7.48,12.24,7.48,12.24,0v-35.69c0-8.16-12.24-8.16-12.24,0v35.69Z"/>
  </g>
</svg>