<?xml version="1.0" encoding="UTF-8"?>
<svg id="Capa_2" data-name="Capa 2" xmlns="http://www.w3.org/2000/svg" viewBox="0 0 863.16 863.16">
  <defs>
    <style>
      .cls-1 {
        fill: #fff;
      }
    </style>
  </defs>
  <g id="Capa_1-2" data-name="Capa 1">
    <circle cx="431.58" cy="431.58" r="431.58"/>
    <circle class="cls-1" cx="486.87" cy="372.71" r="287.98"/>
    <path d="M281.32,241.75c0-16.01,12.98-28.99,28.99-28.99h353.11c16.01,0,28.99,12.98,28.99,28.99v93.47c0,11.25-4.33,19.47-12.55,24.23-4.76,2.16-4.76,7.36,0,9.52,8.22,4.76,12.55,12.98,12.55,24.23v93.47c0,16.01-12.98,28.99-28.99,28.99h-353.11c-16.01,0-28.99-12.98-28.99-28.99v-93.47c0-11.25,4.33-19.47,12.55-24.23,4.76-2.16,4.76-7.36,0-9.52-8.22-4.76-12.55-12.98-12.55-24.23v-93.47ZM479.08,326.57c0,9.52,15.58,9.52,15.58,0v-45.87c0-9.52-15.58-9.52-15.58,0v45.87ZM479.08,447.73c0,9.52,15.58,9.52,15.58,0v-45.44c0-10.39-15.58-10.39-15.58,0v45.44Z"/>
  </g>
</svg>