<?xml version="1.0" encoding="UTF-8"?>
<svg id="Capa_2" data-name="Capa 2" xmlns="http://www.w3.org/2000/svg" viewBox="0 0 1620.81 289.25">
  <defs>
    <style>
      .cls-1 {
        fill: #dc1915;
      }
    </style>
  </defs>
  <g id="Capa_1-2" data-name="Capa 1">
    <g>
      <path class="cls-1" d="M0,27.69C0,12.4,12.4,0,27.68,0h337.18c15.29,0,27.69,12.4,27.69,27.69v89.25c0,10.74-4.13,18.59-11.98,23.14-4.55,2.07-4.55,7.02,0,9.09,7.85,4.55,11.98,12.4,11.98,23.14v89.25c0,15.29-12.4,27.69-27.69,27.69H27.68c-15.29,0-27.68-12.4-27.68-27.69v-89.25c0-10.74,4.13-18.59,11.98-23.14,4.55-2.07,4.55-7.02,0-9.09-7.85-4.55-11.98-12.4-11.98-23.14V27.69ZM187.84,108.67c0,9.09,16.88,9.09,16.88,0v-43.8c0-9.09-16.88-9.09-16.88,0v43.8ZM187.84,224.37c0,9.09,16.88,9.09,16.88,0v-43.39c0-9.92-16.88-9.92-16.88,0v43.39Z"/>
      <path class="cls-1" d="M437.11,289.25c-15.29,0-27.69-12.4-27.69-27.69V27.69c0-15.29,12.4-27.69,27.69-27.69h337.18c15.29,0,27.69,12.4,27.69,27.69v101.48c0,4.96-2.48,7.44-7.02,7.44h-173.96c-4.54,0-7.44-2.48-7.85-7.44v-63.87c0-9.92-16.88-9.92-16.88,0v159.09c0,9.09,16.88,9.09,16.88,0v-64.29c0-4.55,2.48-7.02,7.02-7.02h173.96c4.55,0,7.85,3.31,7.85,7.02v101.48c0,15.29-12.4,27.69-27.69,27.69h-337.18Z"/>
      <path class="cls-1" d="M1006.68,108.26c0,9.92,16.88,9.92,16.88,0V7.44c0-4.96,2.48-7.44,7.02-7.44h172.96c4.55,0,7.85,3.72,7.85,7.44v274.78c0,3.72-3.31,7.02-7.02,7.02h-172.96c-4.54,0-7.85-3.31-7.85-7.02v-101.24c0-9.92-16.88-9.92-16.88,0v101.24c0,4.54-2.07,7.02-6.61,7.02h-174.2c-3.72,0-7.02-3.31-7.02-7.02V7.44c0-4.96,2.07-7.44,6.61-7.44h173.79c3.72,0,7.44,2.89,7.44,7.44v100.82Z"/>
      <path class="cls-1" d="M1620.81,261.56c0,15.29-12.4,27.69-27.69,27.69h-337.18c-15.29,0-27.69-12.4-27.69-27.69V27.69c0-15.29,12.4-27.69,27.69-27.69h337.18c15.29,0,27.69,12.4,27.69,27.69v233.88ZM1432.97,65.29c0-9.92-16.88-9.92-16.88,0v158.67c0,9.92,16.88,9.92,16.88,0V65.29Z"/>
    </g>
  </g>
</svg>